HIERARCHY
ROOT Hips
{
  OFFSET 1.647 -5.406 -297.380
  CHANNELS 6 Xposition Yposition Zposition Zrotation Xrotation Yrotation
  JOINT LeftUpLeg
  {
    OFFSET 6.899 -6.146 1.714
    CHANNELS 6 Xposition Yposition Zposition Zrotation Xrotation Yrotation
    JOINT LeftLeg
    {
      OFFSET -0.000 -47.049 0.000
      CHANNELS 6 Xposition Yposition Zposition Zrotation Xrotation Yrotation
      JOINT LeftFoot
      {
        OFFSET 0.000 -35.481 -0.000
        CHANNELS 6 Xposition Yposition Zposition Zrotation Xrotation Yrotation
        End Site
        {
          OFFSET 0.000 -7.663 4.424
        }
      }
    }
  }
  JOINT RightUpLeg
  {
    OFFSET -6.496 -6.592 2.449
    CHANNELS 6 Xposition Yposition Zposition Zrotation Xrotation Yrotation
    JOINT RightLeg
    {
      OFFSET -0.000 -44.751 0.000
      CHANNELS 6 Xposition Yposition Zposition Zrotation Xrotation Yrotation
      JOINT RightFoot
      {
        OFFSET -0.000 -37.320 -0.000
        CHANNELS 6 Xposition Yposition Zposition Zrotation Xrotation Yrotation
        End Site
        {
          OFFSET 0.000 -7.642 4.412
        }
      }
    }
  }
  JOINT Spine
  {
    OFFSET 0.000 5.566 -5.566
    CHANNELS 6 Xposition Yposition Zposition Zrotation Xrotation Yrotation
    JOINT LeftShoulder
    {
      OFFSET -0.000 32.039 0.000
      CHANNELS 6 Xposition Yposition Zposition Zrotation Xrotation Yrotation
      JOINT LeftArm
      {
        OFFSET 15.934 0.000 -0.000
        CHANNELS 6 Xposition Yposition Zposition Zrotation Xrotation Yrotation
        JOINT LeftForeArm
        {
          OFFSET 25.313 0.000 0.000
          CHANNELS 6 Xposition Yposition Zposition Zrotation Xrotation Yrotation
          JOINT LeftHand
          {
            OFFSET 24.099 0.000 -0.000
            CHANNELS 6 Xposition Yposition Zposition Zrotation Xrotation Yrotation
            JOINT LeftHandThumb1
            {
            OFFSET 4.970 -0.620 3.390
            CHANNELS 6 Xposition Yposition Zposition Zrotation Xrotation Yrotation
              JOINT LeftHandThumb2
              {
              OFFSET 2.150 -0.000 0.000
              CHANNELS 6 Xposition Yposition Zposition Zrotation Xrotation Yrotation
                JOINT LeftHandThumb3
                {
                OFFSET 2.200 -0.000 0.000
                CHANNELS 6 Xposition Yposition Zposition Zrotation Xrotation Yrotation
                  JOINT LeftHandThumb4
                  {
                  OFFSET 1.700 -0.000 0.000
                  CHANNELS 6 Xposition Yposition Zposition Zrotation Xrotation Yrotation
                  }
                }
              }
            }
            JOINT LeftHandIndex1
            {
            OFFSET 8.730 0.680 2.070
            CHANNELS 6 Xposition Yposition Zposition Zrotation Xrotation Yrotation
              JOINT LeftHandIndex2
              {
              OFFSET 2.670 -0.000 0.000
              CHANNELS 6 Xposition Yposition Zposition Zrotation Xrotation Yrotation
                JOINT LeftHandIndex3
                {
                OFFSET 2.130 -0.000 0.000
                CHANNELS 6 Xposition Yposition Zposition Zrotation Xrotation Yrotation
                  JOINT LeftHandIndex4
                  {
                  OFFSET 1.800 -0.000 0.000
                  CHANNELS 6 Xposition Yposition Zposition Zrotation Xrotation Yrotation
                  }
                }
              }
            }
            JOINT LeftHandMiddle1
            {
            OFFSET 9.220 0.670 0.550
            CHANNELS 6 Xposition Yposition Zposition Zrotation Xrotation Yrotation
              JOINT LeftHandMiddle2
              {
              OFFSET 2.660 -0.000 0.000
              CHANNELS 6 Xposition Yposition Zposition Zrotation Xrotation Yrotation
                JOINT LeftHandMiddle3
                {
                OFFSET 2.280 -0.000 0.000
                CHANNELS 6 Xposition Yposition Zposition Zrotation Xrotation Yrotation
                  JOINT LeftHandMiddle4
                  {
                  OFFSET 1.500 -0.000 0.000
                  CHANNELS 6 Xposition Yposition Zposition Zrotation Xrotation Yrotation
                  }
                }
              }
            }
            JOINT LeftHandRing1
            {
            OFFSET 9.250 0.670 -1.130
            CHANNELS 6 Xposition Yposition Zposition Zrotation Xrotation Yrotation
              JOINT LeftHandRing2
              {
              OFFSET 2.470 -0.000 0.000
              CHANNELS 6 Xposition Yposition Zposition Zrotation Xrotation Yrotation
                JOINT LeftHandRing3
                {
                OFFSET 2.210 -0.000 0.000
                CHANNELS 6 Xposition Yposition Zposition Zrotation Xrotation Yrotation
                  JOINT LeftHandRing4
                  {
                  OFFSET 1.800 -0.000 0.000
                  CHANNELS 6 Xposition Yposition Zposition Zrotation Xrotation Yrotation
                  }
                }
              }
            }
            JOINT LeftHandPinky1
            {
            OFFSET 9.350 0.660 -2.720
            CHANNELS 6 Xposition Yposition Zposition Zrotation Xrotation Yrotation
              JOINT LeftHandPinky2
              {
              OFFSET 1.630 -0.000 0.000
              CHANNELS 6 Xposition Yposition Zposition Zrotation Xrotation Yrotation
                JOINT LeftHandPinky3
                {
                OFFSET 1.710 -0.000 0.000
                CHANNELS 6 Xposition Yposition Zposition Zrotation Xrotation Yrotation
                  JOINT LeftHandPinky4
                  {
                  OFFSET 1.800 -0.000 0.000
                  CHANNELS 6 Xposition Yposition Zposition Zrotation Xrotation Yrotation
                  }
                }
              }
            }
          }
        }
      }
    }
    JOINT RightShoulder
    {
      OFFSET -0.000 32.039 0.000
      CHANNELS 6 Xposition Yposition Zposition Zrotation Xrotation Yrotation
      JOINT RightArm
      {
        OFFSET -18.387 0.000 -0.000
        CHANNELS 6 Xposition Yposition Zposition Zrotation Xrotation Yrotation
        JOINT RightForeArm
        {
          OFFSET -23.904 0.000 0.000
          CHANNELS 6 Xposition Yposition Zposition Zrotation Xrotation Yrotation
          JOINT RightHand
          {
            OFFSET -23.258 -0.000 -0.000
            CHANNELS 6 Xposition Yposition Zposition Zrotation Xrotation Yrotation
            JOINT RightHandThumb1
            {
            OFFSET -4.970 -0.620 3.390
            CHANNELS 6 Xposition Yposition Zposition Zrotation Xrotation Yrotation
              JOINT RightHandThumb2
              {
              OFFSET -2.150 0.000 0.000
              CHANNELS 6 Xposition Yposition Zposition Zrotation Xrotation Yrotation
                JOINT RightHandThumb3
                {
                OFFSET -2.200 0.000 0.000
                CHANNELS 6 Xposition Yposition Zposition Zrotation Xrotation Yrotation
                  JOINT RightHandThumb4
                  {
                  OFFSET -1.700 0.000 0.000
                  CHANNELS 6 Xposition Yposition Zposition Zrotation Xrotation Yrotation
                  }
                }
              }
            }
            JOINT RightHandIndex1
            {
            OFFSET -8.730 0.680 2.070
            CHANNELS 6 Xposition Yposition Zposition Zrotation Xrotation Yrotation
              JOINT RightHandIndex2
              {
              OFFSET -2.670 0.000 0.000
              CHANNELS 6 Xposition Yposition Zposition Zrotation Xrotation Yrotation
                JOINT RightHandIndex3
                {
                OFFSET -2.130 0.000 0.000
                CHANNELS 6 Xposition Yposition Zposition Zrotation Xrotation Yrotation
                  JOINT RightHandIndex4
                  {
                  OFFSET -1.800 0.000 0.000
                  CHANNELS 6 Xposition Yposition Zposition Zrotation Xrotation Yrotation
                  }
                }
              }
            }
            JOINT RightHandMiddle1
            {
            OFFSET -9.220 0.670 0.550
            CHANNELS 6 Xposition Yposition Zposition Zrotation Xrotation Yrotation
              JOINT RightHandMiddle2
              {
              OFFSET -2.660 0.000 0.000
              CHANNELS 6 Xposition Yposition Zposition Zrotation Xrotation Yrotation
                JOINT RightHandMiddle3
                {
                OFFSET -2.280 0.000 0.000
                CHANNELS 6 Xposition Yposition Zposition Zrotation Xrotation Yrotation
                  JOINT RightHandMiddle4
                  {
                  OFFSET -1.500 0.000 0.000
                  CHANNELS 6 Xposition Yposition Zposition Zrotation Xrotation Yrotation
                  }
                }
              }
            }
            JOINT RightHandRing1
            {
            OFFSET -9.250 0.670 -1.130
            CHANNELS 6 Xposition Yposition Zposition Zrotation Xrotation Yrotation
              JOINT RightHandRing2
              {
              OFFSET -2.470 0.000 0.000
              CHANNELS 6 Xposition Yposition Zposition Zrotation Xrotation Yrotation
                JOINT RightHandRing3
                {
                OFFSET -2.210 0.000 0.000
                CHANNELS 6 Xposition Yposition Zposition Zrotation Xrotation Yrotation
                  JOINT RightHandRing4
                  {
                  OFFSET -1.800 0.000 0.000
                  CHANNELS 6 Xposition Yposition Zposition Zrotation Xrotation Yrotation
                  }
                }
              }
            }
            JOINT RightHandPinky1
            {
            OFFSET -9.350 0.660 -2.720
            CHANNELS 6 Xposition Yposition Zposition Zrotation Xrotation Yrotation
              JOINT RightHandPinky2
              {
              OFFSET -1.630 0.000 0.000
              CHANNELS 6 Xposition Yposition Zposition Zrotation Xrotation Yrotation
                JOINT RightHandPinky3
                {
                OFFSET -1.710 0.000 0.000
                CHANNELS 6 Xposition Yposition Zposition Zrotation Xrotation Yrotation
                  JOINT RightHandPinky4
                  {
                  OFFSET -1.800 0.000 0.000
                  CHANNELS 6 Xposition Yposition Zposition Zrotation Xrotation Yrotation
                  }
                }
              }
            }
          }
        }
      }
    }
    JOINT Neck
    {
      OFFSET -0.000 32.039 0.000
      CHANNELS 6 Xposition Yposition Zposition Zrotation Xrotation Yrotation
      JOINT Head
      {
        OFFSET -0.000 21.003 -0.000
        CHANNELS 6 Xposition Yposition Zposition Zrotation Xrotation Yrotation
        End Site
        {
          OFFSET -0.000 0.084 -0.000
        }
      }
    }
  }
}
MOTION
Frames:	5
Frame Time:	0.0333333
2.32841 1.81194 -298.127 2.82015 8.85312 -22.8301 7.22543 -5.847 2.80273 6.46236 -21.3716 -0.530929 -2.38419e-05 -51.2227 -4.76837e-05 3.57194 12.1774 -0.754397 0 -38.9582 -2.38419e-05 -0.598331 -17.0752 -0.220665 -6.27694 -6.23041 2.22316 1.35789 -16.3892 -2.43274 -4.76837e-05 -50.1922 0 3.964 12.8732 -0.884489 1.19209e-05 -37.9352 -2.38419e-05 -2.81387 6.77766 -1.46641 3.57628e-05 5.38489 -5.38487 3.45771 -15.7343 -4.22912 -1.19209e-05 32.0382 2.38419e-05 -33.4406 1.28066e-05 -11.1644 16.4237 5.21541e-06 -7.15256e-05 131.842 39.3065 -65.8891 28.4297 5.96046e-06 0 -5.82529e-05 7.32702e-07 -94.8583 26.4429 2.98023e-06 -3.57628e-05 31.6181 0.420023 31.2978 0.0062 0.0497 0.0339 0 0 0 0 0.0215 0 0 0 0 0 0.022 0 0 0 0 0 0.017 0 0 0 0 -0.0068 0.0873 0.0207 0 0 0 0 0.0267 0 0 0 0 0 0.0213 0 0 0 0 0 0.018 0 0 0 0 -0.0067 0.0922 0.0055 0 0 0 0 0.0266 0 0 0 0 0 0.0228 0 0 0 0 0 0.015 0 0 0 0 -0.0067 0.0925 -0.0113 0 0 0 0 0.0247 0 0 0 0 0 0.0221 0 0 0 0 0 0.018 0 0 0 0 -0.0066 0.0935 -0.0272 0 0 0 0 0.0163 0 0 0 0 0 0.0171 0 0 0 0 0 0.018 0 0 0 0 -1.19209e-05 32.0382 2.38419e-05 9.16028 8.53773e-07 11.3788 -16.1182 1.19209e-05 4.76837e-05 45.5949 -40.0243 99.6796 -22.2968 -4.76837e-05 -5.96046e-06 -1.60229e-05 3.62854e-06 55.9075 -24.7193 9.53674e-05 0 2.46205 -0.00391818 1.24141 -0.0062 0.0497 0.0339 0 0 0 0 0.0215 0 0 0 0 0 0.022 0 0 0 0 0 0.017 0 0 0 0 0.0068 0.0873 0.0207 0 0 0 0 0.0267 0 0 0 0 0 0.0213 0 0 0 0 0 0.018 0 0 0 0 0.0067 0.0922 0.0055 0 0 0 0 0.0266 0 0 0 0 0 0.0228 0 0 0 0 0 0.015 0 0 0 0 0.0067 0.0925 -0.0113 0 0 0 0 0.0247 0 0 0 0 0 0.0221 0 0 0 0 0 0.018 0 0 0 0 0.0066 0.0935 -0.0272 0 0 0 0 0.0163 0 0 0 0 0 0.0171 0 0 0 0 0 0.018 0 0 0 0 -1.19209e-05 32.0382 2.38419e-05 -1.58902 14.2701 0.391787 -1.19209e-05 21.213 0 1.10991e-05 -9.39151e-06 0 
2.34426 6.00435 -297.977 1.19754 5.57653 -22.1595 7.12136 -6.05425 2.61142 7.09232 -16.5153 -1.19994 0 -52.083 7.15256e-05 2.59501 10.5031 -0.473359 0 -39.8926 -2.38419e-05 -0.333705 -19.5861 -0.0255612 -6.13096 -6.01734 1.82817 1.11061 -11.2795 -3.07021 4.76837e-05 -51.4303 4.76837e-05 3.6727 10.5431 -0.67291 -2.38419e-05 -39.6527 -2.38419e-05 -3.17488 2.36908 -1.81082 -1.19209e-05 5.12902 -5.12908 3.41945 -12.9206 -5.16602 0 32.0382 -2.38419e-05 -29.5625 1.57948e-05 -10.9318 15.606 5.21541e-06 2.38419e-05 127.534 39.5919 -61.234 29.6682 2.98023e-06 -7.15256e-05 -3.62133e-08 -6.01225e-07 -96.8938 26.9704 5.96046e-06 2.38419e-05 31.676 0.448658 30.8151 0.0062 0.0497 0.0339 0 0 0 0 0.0215 0 0 0 0 0 0.022 0 0 0 0 0 0.017 0 0 0 0 -0.0068 0.0873 0.0207 0 0 0 0 0.0267 0 0 0 0 0 0.0213 0 0 0 0 0 0.018 0 0 0 0 -0.0067 0.0922 0.0055 0 0 0 0 0.0266 0 0 0 0 0 0.0228 0 0 0 0 0 0.015 0 0 0 0 -0.0067 0.0925 -0.0113 0 0 0 0 0.0247 0 0 0 0 0 0.0221 0 0 0 0 0 0.018 0 0 0 0 -0.0066 0.0935 -0.0272 0 0 0 0 0.0163 0 0 0 0 0 0.0171 0 0 0 0 0 0.018 0 0 0 0 0 32.0382 -2.38419e-05 3.76449 8.53774e-07 10.5451 -16.1715 1.19209e-05 4.76837e-05 48.5985 -43.5028 105.14 -24.4079 0.000119209 5.96046e-06 -1.72831e-06 9.60495e-06 47.963 -26.9029 -2.38419e-05 -5.96046e-06 2.21628 -0.0207563 -0.0853315 -0.0062 0.0497 0.0339 0 0 0 0 0.0215 0 0 0 0 0 0.022 0 0 0 0 0 0.017 0 0 0 0 0.0068 0.0873 0.0207 0 0 0 0 0.0267 0 0 0 0 0 0.0213 0 0 0 0 0 0.018 0 0 0 0 0.0067 0.0922 0.0055 0 0 0 0 0.0266 0 0 0 0 0 0.0228 0 0 0 0 0 0.015 0 0 0 0 0.0067 0.0925 -0.0113 0 0 0 0 0.0247 0 0 0 0 0 0.0221 0 0 0 0 0 0.018 0 0 0 0 0.0066 0.0935 -0.0272 0 0 0 0 0.0163 0 0 0 0 0 0.0171 0 0 0 0 0 0.018 0 0 0 0 0 32.0382 -2.38419e-05 -1.61795 17.2269 0.479277 0 19.0247 2.38419e-05 1.02453e-05 -1.19528e-05 0 
2.3298 8.99047 -298.007 -0.28964 4.77073 -20.8764 7.1195 -6.10063 2.65417 8.1549 -15.0191 -2.21984 -1.19209e-05 -52.4882 -2.38419e-05 2.12341 10.48 -0.386402 2.38419e-05 -40.3342 -4.76837e-05 -0.204237 -20.7103 0.0722717 -6.02028 -6.21265 1.66113 1.83325 -9.82467 -4.03128 2.38419e-05 -51.6595 -2.38419e-05 3.86829 10.8613 -0.729984 -1.19209e-05 -39.0262 0 -3.264 0.174583 -1.9468 -1.19209e-05 5.08821 -5.08816 4.14358 -12.1139 -5.91018 1.19209e-05 32.0382 4.76837e-05 -30.8187 1.28066e-05 -10.0335 15.5609 3.72529e-06 0 128.733 37.9146 -58.6989 30.5004 0 -2.38419e-05 -1.72443e-05 1.00519e-06 -96.6721 26.8701 -2.98023e-06 -2.38419e-05 31.7067 0.45804 30.2999 0.0062 0.0497 0.0339 0 0 0 0 0.0215 0 0 0 0 0 0.022 0 0 0 0 0 0.017 0 0 0 0 -0.0068 0.0873 0.0207 0 0 0 0 0.0267 0 0 0 0 0 0.0213 0 0 0 0 0 0.018 0 0 0 0 -0.0067 0.0922 0.0055 0 0 0 0 0.0266 0 0 0 0 0 0.0228 0 0 0 0 0 0.015 0 0 0 0 -0.0067 0.0925 -0.0113 0 0 0 0 0.0247 0 0 0 0 0 0.0221 0 0 0 0 0 0.018 0 0 0 0 -0.0066 0.0935 -0.0272 0 0 0 0 0.0163 0 0 0 0 0 0.0171 0 0 0 0 0 0.018 0 0 0 0 1.19209e-05 32.0382 4.76837e-05 1.58473 -2.56132e-06 9.58774 -16.2771 -1.19209e-05 -7.15256e-05 47.4133 -45.3266 104.845 -24.7276 4.76837e-05 -5.96046e-06 -3.55463e-07 2.77476e-06 44.9183 -26.8962 -7.15256e-05 -5.96046e-06 0.331839 -0.0188059 -0.718574 -0.0062 0.0497 0.0339 0 0 0 0 0.0215 0 0 0 0 0 0.022 0 0 0 0 0 0.017 0 0 0 0 0.0068 0.0873 0.0207 0 0 0 0 0.0267 0 0 0 0 0 0.0213 0 0 0 0 0 0.018 0 0 0 0 0.0067 0.0922 0.0055 0 0 0 0 0.0266 0 0 0 0 0 0.0228 0 0 0 0 0 0.015 0 0 0 0 0.0067 0.0925 -0.0113 0 0 0 0 0.0247 0 0 0 0 0 0.0221 0 0 0 0 0 0.018 0 0 0 0 0.0066 0.0935 -0.0272 0 0 0 0 0.0163 0 0 0 0 0 0.0171 0 0 0 0 0 0.018 0 0 0 0 1.19209e-05 32.0382 4.76837e-05 -2.05823 17.2747 0.611443 -1.19209e-05 18.8077 -7.15256e-05 9.39151e-06 -1.19528e-05 1.70755e-06 
2.2866 13.9811 -298.09 -0.789166 2.6929 -21.8961 6.93647 -6.01942 2.35915 9.04085 -13.3185 -0.974304 3.57628e-05 -51.4059 7.15256e-05 1.63611 12.5507 -0.355626 0 -38.7236 -7.15256e-05 -0.228315 -21.989 -0.00899465 -5.95013 -6.28617 1.71902 1.37617 -7.51777 -2.79409 3.57628e-05 -51.4845 0 4.28195 11.9862 -0.890837 0 -38.3644 2.38419e-05 -3.34834 -5.02161 -2.20912 -2.38419e-05 5.12137 -5.12137 3.88839 -10.957 -5.28146 0 32.0382 -2.38419e-05 -25.8313 1.36604e-05 -10.2248 14.6534 -2.98023e-06 0 124.798 37.9503 -57.0689 30.7075 0 2.38419e-05 -2.74744e-05 -2.61369e-06 -96.7273 27.8302 0 1.19209e-05 31.363 0.380227 28.5476 0.0062 0.0497 0.0339 0 0 0 0 0.0215 0 0 0 0 0 0.022 0 0 0 0 0 0.017 0 0 0 0 -0.0068 0.0873 0.0207 0 0 0 0 0.0267 0 0 0 0 0 0.0213 0 0 0 0 0 0.018 0 0 0 0 -0.0067 0.0922 0.0055 0 0 0 0 0.0266 0 0 0 0 0 0.0228 0 0 0 0 0 0.015 0 0 0 0 -0.0067 0.0925 -0.0113 0 0 0 0 0.0247 0 0 0 0 0 0.0221 0 0 0 0 0 0.018 0 0 0 0 -0.0066 0.0935 -0.0272 0 0 0 0 0.0163 0 0 0 0 0 0.0171 0 0 0 0 0 0.018 0 0 0 0 0 32.0382 -2.38419e-05 -0.776022 0 9.06453 -16.5102 -1.19209e-05 4.76837e-05 48.9258 -46.4871 107.592 -24.5878 -2.38419e-05 5.96046e-06 4.60941e-06 -3.20165e-07 38.3705 -26.7033 4.76837e-05 0 1.37207 -0.0165583 -1.44573 -0.0062 0.0497 0.0339 0 0 0 0 0.0215 0 0 0 0 0 0.022 0 0 0 0 0 0.017 0 0 0 0 0.0068 0.0873 0.0207 0 0 0 0 0.0267 0 0 0 0 0 0.0213 0 0 0 0 0 0.018 0 0 0 0 0.0067 0.0922 0.0055 0 0 0 0 0.0266 0 0 0 0 0 0.0228 0 0 0 0 0 0.015 0 0 0 0 0.0067 0.0925 -0.0113 0 0 0 0 0.0247 0 0 0 0 0 0.0221 0 0 0 0 0 0.018 0 0 0 0 0.0066 0.0935 -0.0272 0 0 0 0 0.0163 0 0 0 0 0 0.0171 0 0 0 0 0 0.018 0 0 0 0 0 32.0382 -2.38419e-05 -3.49025 17.8683 1.07212 3.57628e-05 18.6467 4.76837e-05 9.39151e-06 -1.02453e-05 3.4151e-06 
2.29498 16.4366 -298.108 -0.843716 2.85362 -22.0844 6.87425 -5.88345 2.36869 9.62391 -13.1181 -0.620454 0 -51.9769 -2.38419e-05 0.5635 12.9968 -0.126733 -1.19209e-05 -39.462 0 -0.272464 -22.8809 -0.0841266 -5.91991 -6.30702 1.82648 1.41322 -7.51566 -2.46761 1.19209e-05 -52.057 7.15256e-05 4.51079 12.6952 -0.99326 -1.19209e-05 -37.2416 0 -3.26411 -8.03397 -2.281 1.19209e-05 5.2873 -5.28731 3.54316 -11.1185 -4.84078 -1.19209e-05 32.0382 2.38419e-05 -24.3392 2.09175e-05 -9.15272 14.0094 -2.98023e-06 -4.76837e-05 123.958 36.1475 -55.8355 30.3865 1.19209e-05 4.76837e-05 -9.90808e-05 3.63649e-06 -95.802 28.2976 2.98023e-06 2.38419e-05 31.0059 0.30796 27.3749 0.0062 0.0497 0.0339 0 0 0 0 0.0215 0 0 0 0 0 0.022 0 0 0 0 0 0.017 0 0 0 0 -0.0068 0.0873 0.0207 0 0 0 0 0.0267 0 0 0 0 0 0.0213 0 0 0 0 0 0.018 0 0 0 0 -0.0067 0.0922 0.0055 0 0 0 0 0.0266 0 0 0 0 0 0.0228 0 0 0 0 0 0.015 0 0 0 0 -0.0067 0.0925 -0.0113 0 0 0 0 0.0247 0 0 0 0 0 0.0221 0 0 0 0 0 0.018 0 0 0 0 -0.0066 0.0935 -0.0272 0 0 0 0 0.0163 0 0 0 0 0 0.0171 0 0 0 0 0 0.018 0 0 0 0 -1.19209e-05 32.0382 2.38419e-05 -0.867012 5.97642e-06 7.67439 -16.6869 2.38419e-05 2.38419e-05 49.9575 -46.4878 110.259 -24.5325 -2.38419e-05 -2.98023e-06 2.09375e-06 5.97642e-06 34.685 -25.6538 0 -5.96046e-06 2.133 -0.0160606 -1.90569 -0.0062 0.0497 0.0339 0 0 0 0 0.0215 0 0 0 0 0 0.022 0 0 0 0 0 0.017 0 0 0 0 0.0068 0.0873 0.0207 0 0 0 0 0.0267 0 0 0 0 0 0.0213 0 0 0 0 0 0.018 0 0 0 0 0.0067 0.0922 0.0055 0 0 0 0 0.0266 0 0 0 0 0 0.0228 0 0 0 0 0 0.015 0 0 0 0 0.0067 0.0925 -0.0113 0 0 0 0 0.0247 0 0 0 0 0 0.0221 0 0 0 0 0 0.018 0 0 0 0 0.0066 0.0935 -0.0272 0 0 0 0 0.0163 0 0 0 0 0 0.0171 0 0 0 0 0 0.018 0 0 0 0 -1.19209e-05 32.0382 2.38419e-05 -2.1674 18.8387 0.700154 0 18.1283 0 1.02453e-05 -9.39151e-06 1.70755e-06 
